#define 3bfc79b75c6e4768dc6f5c0bcd0d5f55npYletXy1NAErRQ1_width 20
#define 3bfc79b75c6e4768dc6f5c0bcd0d5f55npYletXy1NAErRQ1_height 20
static char 3bfc79b75c6e4768dc6f5c0bcd0d5f55npYletXy1NAErRQ1_bits[] = {
  0x00, 0x0F, 0x00, 0x00, 0x0F, 0x00, 0x00, 0x0F, 0x00, 0x00, 0x0F, 0x00, 
  0x00, 0x0F, 0x00, 0x00, 0x0F, 0x00, 0x00, 0x0F, 0x00, 0xC0, 0x3F, 0x00, 
  0x80, 0x1F, 0x00, 0x80, 0x1F, 0x00, 0x00, 0x0F, 0x00, 0x00, 0x06, 0x00, 
  0x00, 0x00, 0x02, 0x07, 0x00, 0x0E, 0x07, 0x00, 0x06, 0x07, 0x00, 0x0E, 
  0x07, 0x00, 0x0E, 0xFF, 0xFF, 0x0F, 0xFF, 0xFF, 0x0F, 0xFE, 0xFF, 0x0F, 
  };
