#define 5b86b2dda5a04f8bbf522915a353cc1b6610GZQdXxpNWgei_width 30
#define 5b86b2dda5a04f8bbf522915a353cc1b6610GZQdXxpNWgei_height 30
static char 5b86b2dda5a04f8bbf522915a353cc1b6610GZQdXxpNWgei_bits[] = {
  0x00, 0x00, 0x00, 0x00, 0x00, 0x00, 0x00, 0x00, 0x00, 0x00, 0x00, 0x00, 
  0x00, 0x00, 0x00, 0x00, 0x60, 0x00, 0x00, 0x00, 0xE0, 0x01, 0x00, 0x00, 
  0x60, 0x03, 0x00, 0x00, 0x20, 0x1C, 0x00, 0x00, 0x60, 0x70, 0x00, 0x00, 
  0x40, 0xE0, 0x01, 0x00, 0x40, 0x80, 0x03, 0x00, 0x40, 0x00, 0x0E, 0x00, 
  0x40, 0x00, 0x38, 0x00, 0xC0, 0x00, 0xE0, 0x00, 0xC0, 0x7F, 0xC0, 0x01, 
  0xC0, 0x6F, 0x81, 0x01, 0xC0, 0x00, 0xE0, 0x00, 0x40, 0x00, 0x38, 0x00, 
  0x40, 0x00, 0x0E, 0x00, 0x40, 0x80, 0x03, 0x00, 0x60, 0xC0, 0x00, 0x00, 
  0x60, 0x70, 0x00, 0x00, 0x20, 0x1C, 0x00, 0x00, 0x20, 0x07, 0x00, 0x00, 
  0xE0, 0x01, 0x00, 0x00, 0x60, 0x00, 0x00, 0x00, 0x00, 0x00, 0x00, 0x00, 
  0x00, 0x00, 0x00, 0x00, 0x00, 0x00, 0x00, 0x00, 0x00, 0x00, 0x00, 0x00, 
  };
